<svg width="61" height="74" viewBox="0 0 61 74" fill="none" xmlns="http://www.w3.org/2000/svg">
<path d="M60.8016 18.7376C60.7091 18.5533 60.5924 18.3824 60.4545 18.2293L43.1841 0.971292C42.8293 0.632183 42.3607 0.437658 41.8699 0.425781H16.8881C15.2712 0.429054 13.7217 1.07277 12.5785 2.21598C11.4352 3.35921 10.7915 4.90882 10.7883 6.52558V10.4929H6.3498C4.73298 10.4961 3.18343 11.1399 2.0402 12.2832C0.896987 13.4264 0.253273 14.9759 0.25 16.5927V67.4244C0.253273 69.0412 0.896987 70.5907 2.0402 71.7339C3.18343 72.8772 4.73298 73.5209 6.3498 73.5242H44.3619C45.9702 73.5209 47.5124 72.884 48.6541 71.7515C49.796 70.6191 50.4454 69.0821 50.4617 67.474V63.5066H54.9002C56.517 63.5034 58.0665 62.8597 59.2097 61.7163C60.3531 60.5731 60.9968 59.0236 61 57.4068V19.5558C60.9991 19.2713 60.9312 18.991 60.8016 18.7376ZM43.7296 6.77354L54.6522 17.6837H43.7296V6.77354ZM46.7423 67.5235C46.7423 68.1548 46.4915 68.7604 46.0451 69.2067C45.5988 69.6531 44.9932 69.904 44.3619 69.904H6.3498C5.71849 69.904 5.11298 69.6531 4.66665 69.2067C4.2202 68.7604 3.96939 68.1548 3.96939 67.5235V16.6919C3.96939 16.0606 4.2202 15.4551 4.66665 15.0088C5.11298 14.5623 5.71849 14.3115 6.3498 14.3115H10.7883V57.4068C10.7915 59.0236 11.4352 60.5731 12.5785 61.7163C13.7217 62.8597 15.2712 63.5034 16.8881 63.5066H46.7423V67.5235ZM54.9002 59.8368H16.8881C16.5713 59.8369 16.2576 59.7737 15.9655 59.651C15.6734 59.5282 15.4087 59.3485 15.1871 59.1222C14.9654 58.8958 14.7911 58.6275 14.6744 58.3329C14.5577 58.0385 14.5011 57.7236 14.5077 57.4068V6.57517C14.5011 6.25843 14.5577 5.94354 14.6744 5.64899C14.7911 5.35444 14.9654 5.08614 15.1871 4.85981C15.4087 4.6335 15.6734 4.4537 15.9655 4.33099C16.2576 4.20827 16.5713 4.14509 16.8881 4.14517H40.0103V19.5434C40.0103 20.0366 40.2061 20.5097 40.5549 20.8585C40.9037 21.2072 41.3768 21.4031 41.8699 21.4031H57.2806V57.3572C57.2872 57.674 57.2305 57.9889 57.1139 58.2833C56.9972 58.5779 56.8229 58.8462 56.6012 59.0726C56.3795 59.2989 56.1148 59.4786 55.8227 59.6014C55.5306 59.7241 55.217 59.7873 54.9002 59.7872V59.8368Z" fill="white"/>
</svg>
